<svg width="24" height="24" viewBox="0 0 24 24" fill="none" xmlns="http://www.w3.org/2000/svg">
<path d="M6 13H12.8" stroke="#FF0055" stroke-width="1.5" stroke-miterlimit="10" stroke-linecap="round" stroke-linejoin="round"/>
<path d="M6 16H9.9" stroke="#FF0055" stroke-width="1.5" stroke-miterlimit="10" stroke-linecap="round" stroke-linejoin="round"/>
<path d="M9.9 21H5C3.9 21 3 20.1 3 19V5C3 3.9 3.9 3 5 3H15C16.1 3 17 3.9 17 5V11" stroke="#FF0055" stroke-width="1.5" stroke-miterlimit="10" stroke-linecap="round" stroke-linejoin="round"/>
<path d="M19.3 12.6999L13 18.9999V20.9999H15L21.3 14.6999C21.7 14.2999 21.7 13.6999 21.3 13.2999L20.7 12.6999C20.3 12.2999 19.7 12.2999 19.3 12.6999Z" stroke="#FF0055" stroke-width="1.5" stroke-miterlimit="10" stroke-linecap="round" stroke-linejoin="round"/>
<path d="M7.5 9H6V6H7.5C8.3 6 9 6.7 9 7.5C9 8.3 8.3 9 7.5 9Z" stroke="#FF0055" stroke-width="1.5" stroke-miterlimit="10" stroke-linecap="round" stroke-linejoin="round"/>
</svg>
