<svg width="24" height="24" viewBox="0 0 24 24" fill="none" xmlns="http://www.w3.org/2000/svg">
<path d="M5.625 18.3577C8.5037 21.2445 12.9629 21.8369 16.4954 19.8016C20.0279 17.7664 21.752 13.6116 20.6985 9.67324C19.6449 5.7349 16.0765 2.99593 11.9997 2.99634" stroke="#FF0055" stroke-width="1.5" stroke-linecap="round" stroke-linejoin="round"/>
<path d="M3.72775 15.3765C3.70012 15.3765 3.67773 15.3989 3.67773 15.4265C3.67773 15.4541 3.70012 15.4765 3.72775 15.4765C3.74562 15.4765 3.76213 15.467 3.77107 15.4515C3.78 15.436 3.78 15.4169 3.77107 15.4015C3.76213 15.386 3.74562 15.3765 3.72775 15.3765" stroke="#FF0055" stroke-width="1.5" stroke-linecap="round" stroke-linejoin="round"/>
<path d="M3.04611 11.9502C3.01848 11.9502 2.99609 11.9726 2.99609 12.0002C2.99609 12.0278 3.01848 12.0502 3.04611 12.0502C3.07373 12.0502 3.09613 12.0278 3.09613 12.0002C3.09613 11.9726 3.07373 11.9502 3.04611 11.9502" stroke="#FF0055" stroke-width="1.5" stroke-linecap="round" stroke-linejoin="round"/>
<path d="M3.72775 8.52367C3.71448 8.52367 3.70176 8.52894 3.69238 8.53832C3.683 8.54771 3.67773 8.56043 3.67773 8.57369C3.67773 8.60132 3.70012 8.62372 3.72775 8.62372C3.74562 8.62372 3.76213 8.61418 3.77107 8.59871C3.78 8.58323 3.78 8.56416 3.77107 8.54868C3.76213 8.53321 3.74562 8.52367 3.72775 8.52367" stroke="#FF0055" stroke-width="1.5" stroke-linecap="round" stroke-linejoin="round"/>
<path d="M5.66818 5.6184C5.64077 5.61893 5.61869 5.64102 5.61816 5.66842C5.61816 5.69605 5.64055 5.71844 5.66818 5.71844C5.6958 5.71844 5.7182 5.69605 5.7182 5.66842C5.7182 5.6408 5.6958 5.6184 5.66818 5.6184" stroke="#FF0055" stroke-width="1.5" stroke-linecap="round" stroke-linejoin="round"/>
<path d="M8.57345 3.67773C8.54582 3.67773 8.52343 3.70012 8.52343 3.72775C8.52343 3.75537 8.54582 3.77777 8.57345 3.77777C8.60108 3.77777 8.62347 3.75537 8.62347 3.72775C8.62347 3.70012 8.60108 3.67773 8.57345 3.67773" stroke="#FF0055" stroke-width="1.5" stroke-linecap="round" stroke-linejoin="round"/>
<path fill-rule="evenodd" clip-rule="evenodd" d="M8.30566 13.4718V10.5316C8.30643 10.1563 8.50846 9.81033 8.83488 9.62521L11.491 8.13259C11.8071 7.9545 12.1933 7.9545 12.5094 8.13259L15.1655 9.62521C15.4924 9.80986 15.6946 10.1562 15.6947 10.5316V13.4718C15.6924 13.8451 15.4905 14.1886 15.1655 14.3722L12.5084 15.8648C12.192 16.0419 11.8064 16.0419 11.49 15.8648L8.83388 14.3762C8.5077 14.1919 8.3059 13.8464 8.30566 13.4718V13.4718Z" stroke="#FF0055" stroke-width="1.5" stroke-linecap="round" stroke-linejoin="round"/>
<path d="M12.0002 12V16.0017" stroke="#FF0055" stroke-width="1.5" stroke-linecap="round" stroke-linejoin="round"/>
<path d="M8.44727 10.0064L11.9997 12.0002L15.5522 10.0054" stroke="#FF0055" stroke-width="1.5" stroke-linecap="round" stroke-linejoin="round"/>
</svg>
