<svg width="24" height="24" viewBox="0 0 24 24" fill="none" xmlns="http://www.w3.org/2000/svg">
<path d="M13 21H19C20.1 21 21 20.1 21 19V16" stroke="#FF0055" stroke-width="1.5" stroke-linecap="round" stroke-linejoin="round"/>
<path d="M8 3H5C3.9 3 3 3.9 3 5V11" stroke="#FF0055" stroke-width="1.5" stroke-linecap="round" stroke-linejoin="round"/>
<path d="M19.5 4.6H16.5C16.2 4.6 15.9 4.4 15.7 4.2L15.2 3.4C15 3.2 14.7 3 14.4 3H12.5C11.7 3 11 3.7 11 4.5V10.5C11 11.3 11.7 12 12.5 12H19.5C20.3 12 21 11.3 21 10.5V6.1C21 5.3 20.3 4.6 19.5 4.6Z" stroke="#FF0055" stroke-width="1.5" stroke-linecap="round" stroke-linejoin="round"/>
<path d="M3 16H9L7 14" stroke="#FF0055" stroke-width="1.5" stroke-linecap="round" stroke-linejoin="round"/>
<path d="M9 19H3L5 21" stroke="#FF0055" stroke-width="1.5" stroke-linecap="round" stroke-linejoin="round"/>
</svg>
