<svg width="24" height="24" viewBox="0 0 24 24" fill="none" xmlns="http://www.w3.org/2000/svg">
<path d="M8.4998 12.0001C9.71483 12.0001 10.6998 11.0151 10.6998 9.8001C10.6998 8.58507 9.71483 7.6001 8.4998 7.6001C7.28478 7.6001 6.2998 8.58507 6.2998 9.8001C6.2998 11.0151 7.28478 12.0001 8.4998 12.0001Z" stroke="#FF1462" stroke-width="1.5" stroke-linecap="round" stroke-linejoin="round"/>
<path d="M2 18.5V5.5C2 4.4 2.9 3.5 4 3.5H20C21.1 3.5 22 4.4 22 5.5V18.5C22 19.6 21.1 20.5 20 20.5H4C2.9 20.5 2 19.6 2 18.5Z" stroke="#FF1462" stroke-width="1.5" stroke-linecap="round" stroke-linejoin="round"/>
<path d="M15 9.5H19" stroke="#FF1462" stroke-width="1.5" stroke-linecap="round" stroke-linejoin="round"/>
<path d="M17.4 13.5H15" stroke="#FF1462" stroke-width="1.5" stroke-linecap="round" stroke-linejoin="round"/>
<path d="M12.1004 16.5C11.9004 16.1 11.7004 15.7 11.3004 15.3C10.7004 14.8 9.90039 14.5 9.10039 14.5H7.90039C7.10039 14.5 6.30039 14.8 5.70039 15.3C5.40039 15.6 5.10039 16 4.90039 16.5" stroke="#FF1462" stroke-width="1.5" stroke-linecap="round" stroke-linejoin="round"/>
</svg>
