<svg width="24" height="24" viewBox="0 0 24 24" fill="none" xmlns="http://www.w3.org/2000/svg">
<path d="M19.5 17.5H16C15.7 17.5 15.4 17.7 15.2 17.9L14.8 18.5C14.6 18.8 14.3 19 14 19H9C8.7 19 8.4 18.8 8.2 18.6L7.8 18C7.6 17.7 7.3 17.6 7 17.6H3.5C2.9 17.6 2.5 18 2.5 18.6V19.6C2.5 20.7 3.4 21.6 4.5 21.6H18.5C19.6 21.6 20.5 20.7 20.5 19.6V18.6C20.5 17.9 20.1 17.5 19.5 17.5Z" stroke="#FF0055" stroke-width="1.5" stroke-linecap="round" stroke-linejoin="round"/>
<path d="M11.1 5.5H5.3C4.3 5.5 3.5 6.2 3.5 7.1V17.5" stroke="#FF0055" stroke-width="1.5" stroke-linecap="round" stroke-linejoin="round"/>
<path d="M19.5 17.5V12.2" stroke="#FF0055" stroke-width="1.5" stroke-linecap="round" stroke-linejoin="round"/>
<path d="M13.4998 7.5C13.0998 7.5 12.7998 7.8 12.7998 8.2C12.7998 8.6 13.0998 8.9 13.4998 8.9C13.8998 8.9 14.1998 8.6 14.1998 8.2C14.1998 7.8 13.8998 7.5 13.4998 7.5Z" fill="#FF0055"/>
<path d="M15.9002 7.5C15.5002 7.5 15.2002 7.8 15.2002 8.2C15.2002 8.6 15.5002 8.9 15.9002 8.9C16.3002 8.9 16.6002 8.6 16.6002 8.2C16.5002 7.8 16.2002 7.5 15.9002 7.5Z" fill="#FF0055"/>
<path d="M18.2 7.5C17.8 7.5 17.5 7.8 17.5 8.2C17.5 8.6 17.8 8.9 18.2 8.9C18.6 8.9 18.9 8.6 18.9 8.2C18.9 7.8 18.6 7.5 18.2 7.5Z" fill="#FF0055"/>
<path d="M11.1 10.6C10.7 9.8 10.5 9 10.5 8C10.5 5 13 2.5 16 2.5C19 2.5 21.5 5 21.5 8C21.5 11 19 13.5 16 13.5C15.1 13.5 14.2 13.3 13.5 12.9L10.6 13.5L11.1 10.6Z" stroke="#FF0055" stroke-width="1.5" stroke-linecap="round" stroke-linejoin="round"/>
</svg>
