<svg id="Layer_1" xmlns="http://www.w3.org/2000/svg" xmlns:xlink="http://www.w3.org/1999/xlink" viewBox="0 0 360 85"><defs><linearGradient id="linear-gradient" x1="49.18" y1="12.04" x2="-7.69" y2="43.56" gradientUnits="userSpaceOnUse"><stop offset=".22" stop-color="#e0004b"/><stop offset=".54" stop-color="#df024b"/><stop offset=".73" stop-color="#db0b4b"/><stop offset=".88" stop-color="#d5194c"/><stop offset="1" stop-color="#cc2b4d"/></linearGradient><linearGradient id="linear-gradient-2" x1="4660.73" y1="1938.77" x2="4603.86" y2="1970.29" gradientTransform="rotate(180 2341.045 1005.865)" xlink:href="#linear-gradient"/></defs><path fill="#190429" class="cls-1" d="M106.78 42q-.14-.28-.3-.57a11.39 11.39 0 0 0-5.17-4.25 20.53 20.53 0 0 0-1.93-.82q-1.29-.51-1.92-.72c-.4-.14-1.1-.36-2.08-.66a21.65 21.65 0 0 1-5.73-2.51 3.86 3.86 0 0 1-1.57-3.36 4.43 4.43 0 0 1 1.68-3.67 7.12 7.12 0 0 1 4.52-1.37c3.79 0 6.36 1.75 7.86 5.34l.11.27 4.4-2.55-.09-.2a13.58 13.58 0 0 0-4.79-5.75A13 13 0 0 0 94.28 19a12.23 12.23 0 0 0-8.09 2.78 9.34 9.34 0 0 0-3.34 7.54 8.67 8.67 0 0 0 .71 3.56 9.39 9.39 0 0 0 1.59 2.53 9.3 9.3 0 0 0 2.69 1.88 28.36 28.36 0 0 0 3 1.34q1.18.44 3.42 1.14a27.69 27.69 0 0 1 6.39 2.67 4 4 0 0 1 1.82 3.6 4.54 4.54 0 0 1-1.83 3.8 8.79 8.79 0 0 1-5.44 1.45c-4.88 0-7.91-2.06-9.27-6.29l-.1-.29-4.51 2.59.07.2a12.64 12.64 0 0 0 5 6.53 15.41 15.41 0 0 0 8.66 2.38 14 14 0 0 0 9-2.82A9.39 9.39 0 0 0 107.6 46a9.23 9.23 0 0 0-.82-4zM129.27 43.59c0 2.77-.66 4.84-2 6.16a7 7 0 0 1-5.17 2 6 6 0 0 1-4.44-1.63 6.33 6.33 0 0 1-1.61-4.63V29.87h-4.92v15.86a10.91 10.91 0 0 0 2.76 7.82 9.71 9.71 0 0 0 7.35 2.9 9.34 9.34 0 0 0 8-3.76v3.1h4.92V29.87h-4.92zM154.18 29.21a11 11 0 0 0-9.36 4.49v-3.83h-4.93V66h4.93V52a11 11 0 0 0 9.36 4.49 12.5 12.5 0 0 0 9.28-4 13.45 13.45 0 0 0 3.83-9.66 13.45 13.45 0 0 0-3.83-9.66 12.5 12.5 0 0 0-9.28-3.96zm-.56 4.79a8.5 8.5 0 0 1 6.23 2.54 9.16 9.16 0 0 1 0 12.62 9 9 0 0 1-12.51 0 9.16 9.16 0 0 1 0-12.62 8.53 8.53 0 0 1 6.28-2.54zM183.72 29.21a13.11 13.11 0 0 0-9.79 3.89 13.44 13.44 0 0 0-3.78 9.73 13.24 13.24 0 0 0 3.85 9.76 13.61 13.61 0 0 0 10 3.86c5 0 8.89-2 11.4-5.86l.14-.22-4.18-2.37-.13.2c-1.47 2.38-3.86 3.59-7.11 3.59A9.47 9.47 0 0 1 178.2 50a8.09 8.09 0 0 1-3-4.84h21.21v-.21a12.68 12.68 0 0 0 .16-2 14 14 0 0 0-3.6-9.65 12 12 0 0 0-9.25-4.09zm0 4.67a8 8 0 0 1 5.18 1.82 8.19 8.19 0 0 1 2.71 5h-16.39a8.41 8.41 0 0 1 2.78-4.87 8.51 8.51 0 0 1 5.72-1.95zM205.63 33.38v-3.51h-4.93v25.92h4.93V42.07c0-2.69.75-4.66 2.24-5.86a7.83 7.83 0 0 1 5.43-1.67h.26v-5.13h-.25c-3.54 0-6.11 1.33-7.68 3.97zM234.1 19a18.52 18.52 0 0 0-18.65 18.71A18.21 18.21 0 0 0 220.86 51a18.82 18.82 0 0 0 26.51 0 18.16 18.16 0 0 0 5.44-13.24A18.58 18.58 0 0 0 234.1 19zm0 32.29a13 13 0 0 1-9.61-3.92 13.29 13.29 0 0 1-3.86-9.66 13.36 13.36 0 0 1 3.86-9.71 13.74 13.74 0 0 1 19.22 0 13.33 13.33 0 0 1 3.87 9.72 13.26 13.26 0 0 1-3.87 9.66 13 13 0 0 1-9.61 3.95zM271.32 29.21A11.06 11.06 0 0 0 262 33.7v-3.83h-5V66h5V52a11.06 11.06 0 0 0 9.36 4.49 12.49 12.49 0 0 0 9.28-4 13.41 13.41 0 0 0 3.84-9.66 13.41 13.41 0 0 0-3.84-9.66 12.49 12.49 0 0 0-9.32-3.96zm-.56 4.79a8.49 8.49 0 0 1 6.24 2.52 9.16 9.16 0 0 1 0 12.62 9 9 0 0 1-12.51 0 9.16 9.16 0 0 1 0-12.62 8.55 8.55 0 0 1 6.27-2.52zM301.5 41.75c-1.38-.45-2.79-.86-4.19-1.22a13 13 0 0 1-3.49-1.4 2.42 2.42 0 0 1-1.35-2.13 2.62 2.62 0 0 1 1.21-2.31 5.41 5.41 0 0 1 3.06-.84c2.63 0 4.33 1 5.21 3.1l.11.26 4.16-2.34-.1-.21a9.29 9.29 0 0 0-3.73-4 11.14 11.14 0 0 0-5.65-1.43 10 10 0 0 0-6.59 2.19 7 7 0 0 0-2.66 5.58 6.26 6.26 0 0 0 1.51 4.37 8.72 8.72 0 0 0 3.67 2.41c1.39.47 2.8.89 4.18 1.25a13 13 0 0 1 3.5 1.4 2.42 2.42 0 0 1 1.35 2.15 2.56 2.56 0 0 1-1.3 2.4 6.87 6.87 0 0 1-3.48.8 7.08 7.08 0 0 1-3.89-1 5.13 5.13 0 0 1-2.15-2.78l-.1-.29-4.27 2.45.09.2a9.36 9.36 0 0 0 3.86 4.44 12.26 12.26 0 0 0 6.54 1.65 11.05 11.05 0 0 0 7-2.14 7 7 0 0 0 2.77-5.73 6.43 6.43 0 0 0-1.54-4.42 8.42 8.42 0 0 0-3.73-2.41zM313.42 49.24a3.56 3.56 0 1 0 2.58 6.07 3.61 3.61 0 0 0 0-5 3.42 3.42 0 0 0-2.58-1.07zM341.24 33.7a11.06 11.06 0 0 0-9.36-4.49 12.49 12.49 0 0 0-9.28 4 13.41 13.41 0 0 0-3.84 9.66 13.41 13.41 0 0 0 3.84 9.66 12.49 12.49 0 0 0 9.28 4 11.06 11.06 0 0 0 9.36-4.53v3.83h4.92V29.87h-4.92zm-8.8 18a8.45 8.45 0 0 1-6.23-2.54 9.16 9.16 0 0 1 0-12.62 9 9 0 0 1 12.51 0 9.16 9.16 0 0 1 0 12.62 8.51 8.51 0 0 1-6.28 2.52zM351.86 29.87h4.92v25.92h-4.92zM354.35 25.74a3.21 3.21 0 0 0 3.2-3.2 3.18 3.18 0 0 0-.93-2.28 3.19 3.19 0 0 0-4.58 0 3.19 3.19 0 0 0-.94 2.28 3.21 3.21 0 0 0 3.25 3.2z"/><path fill="url(#linear-gradient)" class="cls-2" d="M53.06 3.94v13.67a1.4 1.4 0 0 1-.74 1.22L2.45 46.38V30.32a1.59 1.59 0 0 1 .84-1.38L50.76 2.7a1.53 1.53 0 0 1 2.3 1.24z"/><path fill="#f05" class="cls-3" d="M32.16 48L5.25 31.16s-1.31-.68-1.36-1.53a1.83 1.83 0 0 1 .7-1.41l-1.3.72a1.83 1.83 0 0 0-.71.74 1.36 1.36 0 0 0-.13.58v18.07a1.44 1.44 0 0 0 .71 1.24L16.63 58a1.64 1.64 0 0 0 1.66 0l13.8-7.62a1.39 1.39 0 0 0 .07-2.38z"/><path fill="url(#linear-gradient-2)" class="cls-4" d="M17.47 81.06V67.39a1.39 1.39 0 0 1 .75-1.22l49.87-27.55v16.06a1.59 1.59 0 0 1-.84 1.38L19.77 82.3a1.53 1.53 0 0 1-2.3-1.24z"/><path fill="#f05" class="cls-3" d="M38.38 37l26.9 16.85s1.32.68 1.37 1.53a1.87 1.87 0 0 1-.7 1.41l1.3-.72a1.91 1.91 0 0 0 .71-.74 1.5 1.5 0 0 0 .12-.58V36.67a1.46 1.46 0 0 0-.71-1.24L53.91 27a1.64 1.64 0 0 0-1.66 0l-13.8 7.62a1.46 1.46 0 0 0-.07 2.38z"/></svg>