<svg width="24" height="24" viewBox="0 0 24 24" fill="none" xmlns="http://www.w3.org/2000/svg">
<path d="M7 16L6.5 20" stroke="#FF0055" stroke-width="1.5" stroke-linecap="round" stroke-linejoin="round"/>
<path d="M18.4996 11V5.4C18.4996 4.1 17.3996 3 16.0996 3H3.49961C2.19961 3 1.09961 4.1 1.09961 5.4V13.5C1.09961 14.8 2.19961 15.9 3.49961 15.9H10.9996" stroke="#FF0055" stroke-width="1.5" stroke-miterlimit="10" stroke-linecap="round" stroke-linejoin="round"/>
<path d="M5 20H10" stroke="#FF0055" stroke-width="1.5" stroke-miterlimit="10" stroke-linecap="round" stroke-linejoin="round"/>
<path d="M22 18V13C22 11.9 21.1 11 20 11H12.8C11.8 11 11 11.7 11 12.6V18" stroke="#FF0055" stroke-width="1.5" stroke-linecap="round" stroke-linejoin="round"/>
<path d="M22 18H19.5C19.2 18 18.9 18.2 18.7 18.4L18.3 19C18.1 19.3 17.8 19.4 17.5 19.4H15.6C15.3 19.4 15 19.2 14.8 19L14.4 18.4C14.2 18.1 13.9 18 13.6 18H11C10.4 18 10 18.4 10 19V20C10 21.1 10.9 22 12 22H21C22.1 22 23 21.1 23 20V19C23 18.4 22.6 18 22 18Z" stroke="#FF0055" stroke-width="1.5" stroke-linecap="round" stroke-linejoin="round"/>
</svg>
