<svg width="24" height="24" viewBox="0 0 24 24" fill="none" xmlns="http://www.w3.org/2000/svg">
<path d="M20.5854 9.35198C20.8586 10.2083 20.9996 11.1013 21.0036 12.0001C21.0036 16.9727 16.9725 21.0038 11.9998 21.0038C7.02721 21.0038 2.99609 16.9727 2.99609 12.0001C2.99609 7.02745 7.02721 2.99634 11.9998 2.99634C12.8987 3.00033 13.7916 3.14134 14.6479 3.41451" stroke="#FF0055" stroke-width="1.5" stroke-linecap="round" stroke-linejoin="round"/>
<path d="M21.0036 4.271L19.0148 6.25982L17.7393 4.98429" stroke="#FF0055" stroke-width="1.5" stroke-linecap="round" stroke-linejoin="round"/>
<path d="M13.5005 14.5012C11.5667 14.5012 9.99902 12.9336 9.99902 10.9997C9.99902 9.06595 11.5667 7.49829 13.5005 7.49829C15.4343 7.49829 17.0019 9.06595 17.0019 10.9997C17.0019 12.9336 15.4343 14.5012 13.5005 14.5012" stroke="#FF0055" stroke-width="1.5" stroke-linecap="round" stroke-linejoin="round"/>
<path d="M10.3291 9.51709C8.61861 9.59721 7.21816 10.9051 7.02139 12.6061C6.82463 14.3072 7.88953 15.9002 9.53659 16.3687C11.1836 16.8372 12.9275 16.0431 13.6555 14.4932" stroke="#FF0055" stroke-width="1.5" stroke-linecap="round" stroke-linejoin="round"/>
</svg>
