<svg width="24" height="24" viewBox="0 0 24 24" fill="none" xmlns="http://www.w3.org/2000/svg">
<path d="M12 4V3" stroke="#FF0055" stroke-width="1.5" stroke-linecap="round" stroke-linejoin="round"/>
<path d="M18 6.0001L18.9 5.1001" stroke="#FF0055" stroke-width="1.5" stroke-linecap="round" stroke-linejoin="round"/>
<path d="M5.99961 6.0001L5.09961 5.1001" stroke="#FF0055" stroke-width="1.5" stroke-linecap="round" stroke-linejoin="round"/>
<path d="M21 12H21.9" stroke="#FF0055" stroke-width="1.5" stroke-linecap="round" stroke-linejoin="round"/>
<path d="M2.09961 12H2.99961" stroke="#FF0055" stroke-width="1.5" stroke-linecap="round" stroke-linejoin="round"/>
<path d="M14 13V15" stroke="#FF0055" stroke-width="1.5" stroke-linecap="round" stroke-linejoin="round"/>
<path d="M17 18V12.8C17 10.2 14.8 8 12 8C9.2 8 7 10.1 7 12.8V18" stroke="#FF0055" stroke-width="1.5" stroke-linecap="round" stroke-linejoin="round"/>
<path d="M17.5995 18H6.29952C5.89952 18 5.49952 18.3 5.29952 18.7L4.99952 19.7C4.79952 20.3 5.29952 21 5.99952 21H17.9995C18.6995 21 19.1995 20.3 18.8995 19.7L18.4995 18.7C18.3995 18.3 18.0995 18 17.5995 18Z" stroke="#FF0055" stroke-width="1.5" stroke-linecap="round" stroke-linejoin="round"/>
</svg>
