<svg width="24" height="24" viewBox="0 0 24 24" fill="none" xmlns="http://www.w3.org/2000/svg">
<path d="M6 8.19995H3V5.19995" stroke="#FF0055" stroke-width="1.5" stroke-miterlimit="10" stroke-linecap="round" stroke-linejoin="round"/>
<path d="M20.9998 12C20.9998 7 16.9998 3 11.9998 3C8.3998 3 5.1998 5.2 3.7998 8.2" stroke="#FF0055" stroke-width="1.5" stroke-linecap="round" stroke-linejoin="round"/>
<path d="M18 15.8H21V18.8" stroke="#FF0055" stroke-width="1.5" stroke-miterlimit="10" stroke-linecap="round" stroke-linejoin="round"/>
<path d="M3 12C3 17 7 21 12 21C15.6 21 18.8 18.8 20.2 15.8" stroke="#FF0055" stroke-width="1.5" stroke-linecap="round" stroke-linejoin="round"/>
<path d="M14 15.5H10C8.9 15.5 8 14.6 8 13.5C8 12.4 8.9 11.5 10 11.5H14C15.1 11.5 16 12.4 16 13.5C16 14.6 15.1 15.5 14 15.5Z" stroke="#FF0055" stroke-width="1.5" stroke-linecap="round" stroke-linejoin="round"/>
<path d="M8 13.3L8.2 10.3C8.3 9.3 9.1 8.5 10.2 8.5H13.7C14.7 8.5 15.6 9.3 15.7 10.3L15.9 13.3" stroke="#FF0055" stroke-width="1.5" stroke-linecap="round" stroke-linejoin="round"/>
</svg>
