<svg width="24" height="24" viewBox="0 0 24 24" fill="none" xmlns="http://www.w3.org/2000/svg">
<path d="M16.1 3.0001C16.8 2.3001 17.9 2.3001 18.5 3.0001C19.2 3.7001 19.2 4.8001 18.5 5.4001L10.7 13.2001C10.5 13.4001 10.3 13.5001 10 13.5001H8V11.5001C8 11.2001 8.1 11.0001 8.3 10.8001L16.1 3.0001Z" stroke="#FF0055" stroke-width="1.5" stroke-miterlimit="10" stroke-linecap="round" stroke-linejoin="round"/>
<path d="M15 13.5H17" stroke="#FF0055" stroke-width="1.5" stroke-miterlimit="10" stroke-linecap="round" stroke-linejoin="round"/>
<path d="M7 17.5H17" stroke="#FF0055" stroke-width="1.5" stroke-miterlimit="10" stroke-linecap="round" stroke-linejoin="round"/>
<path d="M19 10.5C20.1 10.5 21 11.4 21 12.5V19.5C21 20.6 20.1 21.5 19 21.5H5C3.9 21.5 3 20.6 3 19.5V12.5C3 11.4 3.9 10.5 5 10.5" stroke="#FF0055" stroke-width="1.5" stroke-miterlimit="10" stroke-linecap="round" stroke-linejoin="round"/>
<path d="M14.0996 5L16.4996 7.4" stroke="#FF0055" stroke-width="1.5" stroke-miterlimit="10" stroke-linecap="round" stroke-linejoin="round"/>
<path d="M10.0996 5.6L11.6996 4C12.1996 3.5 12.8996 3.5 13.3996 4C13.8996 4.5 13.8996 5.2 13.3996 5.7L12.2996 6.8" stroke="#FF0055" stroke-width="1.5" stroke-miterlimit="10" stroke-linecap="round" stroke-linejoin="round"/>
</svg>
